<?xml version="1.0" encoding="UTF-8"?>
<svg id="Layer_1" data-name="Layer 1" xmlns="http://www.w3.org/2000/svg" viewBox="0 0 595 595">
  <defs>
    <style>
      .cls-1 {
        fill: #74c9b3;
      }

      .cls-2 {
        fill: #fcca70;
      }

      .cls-3 {
        fill: #e26f57;
      }

      .cls-4 {
        fill: #83b4e1;
      }
    </style>
  </defs>
  <path class="cls-1" d="M408.31,277.83c-31.02,1.09-53.38-28.01-43.18-57.81.45-1.33,3.12-6.61,2.91-7.29-24.05-19.45-55.37-27.89-86.12-23.84-22.84,3.01-44.6,13.44-61.51,28.91,14.81,27.27-4.18,61.94-35.1,63.42-4.85,26.5-.09,54.03,13.34,77.27,14.59,25.25,38.45,44.03,66.43,52.37,14.42-21.54,45.1-25.91,64.67-8.54,1.12.99,5.04,5.74,5.4,5.92,1.54.77,9.02-2.85,10.99-3.78,46.9-22.11,73.88-75.61,62.16-126.64ZM249.89,293.01c-4.85.19-4.9-9.43-1.36-10.22l88.35-.12c4.59-.2,4.63,10.5,0,10.34h-86.99ZM323.64,312.67l-74.7-.04c-3.68-.69-3.83-9.43-.4-10.2l75.08-.12c4.58.01,4.46,9.87.02,10.35ZM330.5,351.97h-81.09c-4.51-.07-4.42-9.32-.38-10.22l81.49-.13c4.39.43,4.61,10.3-.02,10.35ZM341.31,332.32h-91.43c-.81-.05-1.95-.06-2.56-.63-1.9-1.78-1.89-9.66,2.06-9.72h91.92c1.81.22,2.96.8,3.21,2.7.38,2.9.66,7.67-3.21,7.65ZM344.27,273.36h-94.38c-4.85.18-4.9-9.45-1.36-10.24l96.72-.13c4.16.31,4.11,11.25-.98,10.37ZM344.27,253.71h-94.38c-4.83.46-4.59-9.43-1.86-10.25l97.22-.12c4.16.31,4.11,11.25-.98,10.37Z"/>
  <path class="cls-2" d="M565.35,191.79c-38.59-94.05-125.13-162.23-226.1-176.83-10.58-1.53-22.15-3.02-32.84-3.07-.69,0-1.97.03-2.21.78v32.68c-20.43,1.5-38.01,16.33-42.51,36.36-6.34,28.21,14,54.86,42.51,57l.05,34.84c3.43.74,6.97.62,10.44,1.11,27.58,3.86,53.28,16.63,72.96,36.12.2,1.03-5.24,6.78-6.22,8.37-13.31,21.51,4.9,47.73,29.51,43.77,1.25-.2,7.85-2.19,8.23-1.84,7.98,26.94,8.45,55.45-.61,82.18-1.92,5.66-4.68,10.99-6.76,16.58l25.87,14.65c3.21-1.56,5.95-4.11,9.18-5.88,27.34-15.01,61.86-6.24,78.47,19.97,7.87,12.42,10.55,26.93,8.43,41.44l17.79,9.89c42.04-74.98,46.41-168.65,13.81-248.1ZM471.78,247.52l-24.1-22.57c-6.27-.51-12.83-.19-18.94-1.21l-.24-34.7c.01-1.21.56-1.95,1.76-2.17,3.86-.73,14.14,1.01,16.93-.27l24.3-22.87c1.09-.89,2.51-.41,3.64.1l.58,80.78c.06,2.65-1.34,3.96-3.94,2.9ZM492.98,213.24c-1.61,4.47-3.79,8.4-8.39,4.28-4.52-4.06-1.61-4.29-.39-8.14.78-2.45.73-4.75,0-7.19-.45-1.48-2.22-3.92-2.04-5.15.15-.95,3.84-4.91,4.7-5.17,2.62-.8,3.32.85,4.47,2.7,3.45,5.58,3.87,12.56,1.67,18.67ZM497.79,230.85c-4.45-4.31-.61-5.96,1.4-9.44,5.76-9.95,6-21.43.18-31.46-1.52-2.62-4.76-4.3-2.98-7.71.32-.6,3.16-3.48,3.72-3.65,2.45-.75,3.62,1.01,4.97,2.69,10.75,13.42,10.62,35.81-.42,49.04-2.57,3.08-3.73,3.58-6.89.52ZM521.5,239.3c-1.16,1.67-4.81,6.98-6.74,6.98-2.12,0-6.08-4.13-5.66-6.58.13-.77,6.14-8.33,7.28-10.44,8.97-16.63,7.9-35.7-2.45-51.4-1.7-2.58-6.22-5.75-4.35-8.97.45-.78,3.41-3.38,4.31-3.57,2.18-.46,3.21,1.15,4.57,2.6,17.32,18.48,17.15,51.14,3.04,71.37Z"/>
  <path class="cls-4" d="M519.44,441.85c9.81-20.62,4.49-44.99-13.05-59.41-22.17-18.23-55.24-13.06-71.27,10.34l-32.35-18.17c-17.52,25.01-43.88,43.82-73.69,51.1-3.72-7.37-8.94-14.47-16.89-17.61-12.75-5.04-26.88-.96-34.63,10.34-2.11,3.08-3.04,6.14-5.1,9.12-32.43-6.61-62.03-25.64-80.6-53.03l-21.58,12.33c2.98,15.84,1.33,31.49-7.19,45.35-13.53,22.01-39.72,32.33-64.87,26.24-10.01-2.43-18.87-8.08-26.67-14.59l-24.28,13.99c24.29,40.31,58.32,74.99,98.9,98.96l56.31-63.58c6.59-8.25,18.29-9.81,26.55-2.94l51.34,57.73,85.51-92.85c7.36-5.68,17.22-5.34,24.08.96,26.54,27.83,51.48,57.29,78.11,85.02.45.47,1.18,1.51,1.88,1.41.83-.13,11.72-8.92,13.35-10.27,25.31-20.86,46.87-46.59,64.13-74.43l-28-16ZM224.35,472.83c-25.7,1.73-27.6-36.83-2.79-38.17,25.54-1.39,26.84,36.55,2.79,38.17Z"/>
  <g>
    <path class="cls-3" d="M145.15,210.53c-15.47-7.84-30.73-20.12-46.17-27.54-2.6-1.25-4.92-2.4-7.38.1-1.13,1.15-1.52,3.4-1.66,4.98-.83,9.75.14,21.46.04,31.49-.08,7.21-1.2,14.85-.53,22.11.37,4.04,4.16,6.14,7.73,4.24,14.29-9.35,32.02-16.29,46.01-25.73,4.06-2.74,6.5-5.62,1.97-9.64Z"/>
    <path class="cls-3" d="M289.95,33.55V11.93c-62.21,1.7-122.69,23.46-171.44,61.72C19.16,151.61-18.68,285.13,26.21,404.17c4.63,12.27,10.42,23.95,16.13,35.71l31.67-17.59c12.2,16.19,31.86,24.11,51.83,18.36,21.58-6.21,36.35-28.17,33.41-50.6-.68-5.16-2.75-9.92-3.89-14.95l27.36-16.01c-14.52-28.13-17.41-61.95-8.75-92.43,8.56.78,15.74.76,23.27-3.74,12.73-7.62,17.38-23.91,10.93-37.27-.85-1.75-6.71-9.21-6.43-9.82,19.6-21,45.74-36.09,74.36-40.63,4.58-.73,9.24-.86,13.79-1.69v-22.96c-41.27-12.23-57.36-62.48-30.38-96.6,7.66-9.68,18.55-17.01,30.44-20.41ZM162.28,241.24c-20.82,38.33-76.48,39.12-98.26,1.29-20.58-35.74,2.88-81.3,44.03-84.52,44.75-3.51,75.76,43.59,54.23,83.23Z"/>
  </g>
</svg>